<?xml version="1.0" encoding="UTF-8"?>
<svg id="Layer_1" data-name="Layer 1" xmlns="http://www.w3.org/2000/svg" viewBox="0 0 303.13 275.66">
  <defs>
    <style>
      .cls-1 {
        fill: #201613;
      }

      .cls-1, .cls-2, .cls-3, .cls-4, .cls-5, .cls-6, .cls-7, .cls-8, .cls-9, .cls-10, .cls-11, .cls-12, .cls-13, .cls-14 {
        fill-rule: evenodd;
        stroke-width: 0px;
      }

      .cls-2 {
        fill: #e4aa2f;
      }

      .cls-3 {
        fill: #221813;
      }

      .cls-4 {
        fill: #973d0d;
      }

      .cls-5 {
        fill: #2a2524;
      }

      .cls-6 {
        fill: #c56d29;
      }

      .cls-7 {
        fill: #e84f24;
      }

      .cls-8 {
        fill: #211713;
      }

      .cls-9 {
        fill: #c66e29;
      }

      .cls-10 {
        fill: #fdd723;
      }

      .cls-11 {
        fill: #241913;
      }

      .cls-12 {
        fill: #221714;
      }

      .cls-13 {
        fill: #231813;
      }

      .cls-14 {
        fill: #fefefe;
      }
    </style>
  </defs>
  <path class="cls-12" d="M211.39,56.34c-.13.5-.61.53-.96.73-11.27,6.25-23.47,9.88-35.92,12.8-1.15.27-2.31.51-3.53.78.08.19.13.36.22.52,4.03,6.77,6.25,14.14,7.33,21.9,1.46,10.45,2.41,20.96,3.72,31.43,1.14,9.1,3.11,18.07,4.62,27.12,2.62,15.7,7.02,30.98,10.36,46.51.66,3.06,1.36,6.12,1.78,9.22.03.22.12.43.2.72,3.39-1.73,6.71-3.43,10.04-5.12.72-.37.21-.77.04-1.11-2.16-4.47-4.34-8.93-6.51-13.4-.7-1.43-.69-1.46.72-2.13,4.25-2.01,8.49-4.03,12.76-5.99.79-.36.86-.68.55-1.44-3.03-7.38-6.01-14.78-9.01-22.18-.63-1.54-.6-1.6,1-2.22,7.04-2.74,14.12-5.4,21.28-7.79-.01-.47-.32-.73-.53-1.03-10.17-14.86-20.34-29.73-30.52-44.59-.93-1.35-.94-1.37.44-2.3,17.16-11.7,34.73-22.74,52.49-33.5,8.04-4.87,16.16-9.61,24.44-14.06.81-.43,1.28-.42,1.73.45,8.07,15.57,16.18,31.11,22.88,47.33.7,1.69,1.28,3.44,1.97,5.13.36.88.14,1.27-.75,1.61-9.86,3.71-19.76,7.32-29.8,10.53-10.11,3.24-20.23,6.42-30.46,9.24-.96.27-1.04.61-.76,1.49,2.81,8.88,5.58,17.77,8.37,26.66.46,1.46.44,1.5-1.04,2.02-6.67,2.32-13.34,4.65-20.02,6.92-.83.28-.92.59-.69,1.38,1.94,6.67,3.8,13.37,5.76,20.03.35,1.19.08,1.63-1.03,2.1-5.76,2.46-11.47,5.04-17.22,7.52-.84.36-.83.71-.52,1.44,1.76,4.02,3.47,8.07,5.19,12.11.53,1.24.47,1.37-.79,1.81-6.16,2.15-12.33,4.29-18.5,6.43-.56.19-1.02.31-.99,1.12.46,11.89-4.41,21.9-11.14,31.23-1.68,2.33-3.59,4.48-5.7,6.43-2.02,1.86-4.34,3.24-6.9,4.23-.59.23-1.03.57-1.41,1.09-4.3,5.81-9.89,10.18-15.89,14.07-1.09.71-2.27,1.34-3.53,1.61-1.43.3-2.91.33-4.38.46-.17.01-.48-.08-.51-.17-.31-1.25-1.24-.89-2.09-.93-.94-.05-.84-.83-.75-1.48.51-3.78,1.5-7.41,3.5-10.71.23-.38.74-.84-.29-.95-6.36-.64-12.59-2.05-18.83-3.38-4.68-.99-9.37-1.88-14.13-2.3-1.69-.15-3.32.44-4.98.69-8.19,1.24-16.4,2.01-24.69,1.3-.81-.07-1.32.13-1.83.78-2.02,2.56-4.7,4.37-7.31,6.23-3.15,2.24-6.45,4.25-9.95,5.9-.84.39-1.73.93-2.62,0-.09-.1-.36-.05-.54-.03-1.03.11-1.45-.36-2.16-1.21-1.58-1.88-.68-3.49-.14-5.15,1.42-4.36,3.77-8.16,7.29-11.27-3.45-2.32-6.36-5.09-8.75-8.43-4.17-5.82-4.77-12.17-2.98-18.9.52-1.96,1.33-3.83,2.33-5.6,2.07-3.67,3.69-7.54,5.32-11.41.31-.74.22-1.22-.27-1.83-4.58-5.74-8.22-11.99-9.76-19.25-2.79-13.13-.92-25.53,6.09-37.07.78-1.28,1.52-2.58,2.54-3.67.51-.55.35-.81-.09-1.27-3.23-3.37-6.4-6.8-9.21-10.54-2.42-3.22-4.47-6.66-6.07-10.36-1.79-4.14-1.84-8.15.56-12.17,3.45-5.78,4.69-12.16,5.09-18.83.43-7.07,1.5-14.06,4.07-20.73.69-1.79,1.53-3.5,2.46-5.17.23-.41.4-.64-.21-.94-13.64-6.56-24.95-16.2-35.49-26.87-.56-.57-1.11-1.15-1.66-1.72-.04-.47.31-.44.61-.47.45.07.74.35.95.72.43,1.07.68.26.97-.1.63-.02.72.49.85.91.3.98.89,1.75,1.61,2.46,6.12,6.04,12.6,11.65,19.72,16.5,3.94,2.84,8.07,5.37,12.48,7.43.58.27.99.26,1.35-.32.52-.85,1.19-1.59,1.74-2.41,1.06-1.47,2.4-2.67,3.76-3.84.14-.13.29-.25.46-.34.27-.13.57-.3.85-.04.35.34.09.65-.12.9-.97,1.13-2.07,2.14-3.05,3.27-3.72,4.27-6.13,9.23-7.62,14.64-1.38,4.99-2.11,10.1-2.57,15.26-.29,3.23-.37,6.49-1.08,9.68-.31,1.43-.86,2.78-1.29,4.16-.16.5-.25.97.22,1.36,2.28,1.9,3.19,4.53,3.81,7.28,1.03,4.54.87,9.04-.63,13.46-.36,1.06-.87,2.05-1.67,2.85-.54.54-.53,1-.08,1.59,2.11,2.82,4.41,5.48,6.72,8.14,4.58,5.26,10.08,9.47,15.57,13.69.12.09.26.17.36.28.34.36,1.08.67.62,1.25-.42.53-1,.03-1.42-.25-3.54-2.43-6.87-5.12-10.1-7.95-1.3-1.14-1.45-1.21-2.44.26-3.59,5.31-6.27,11.03-7.64,17.33-.76,3.49-1.19,7.01-1.17,10.58.07,10.2,3.04,19.42,9.22,27.58,1.46,1.92,2.91,3.85,4.67,5.51.66.63,1.08,1.39,1.22,2.29.14.94.59,1.06,1.33.61.94-.58,1.86-.62,2.78.08.53.4.97.19,1.42-.22,1.25-1.12,1.29-1.15,2.64-.32.79.48,1.19.4,1.51-.51.39-1.11.75-1.25,1.95-.97,1.83.43,1.94.84,2.28-1.66.21-1.56.38-1.8,1.9-2.15.67-.15.93-.4.72-1.09-.15-.52-.12-1.06-.07-1.6.53-4.95.68-9.91.68-14.88,0-7.8-1.87-15.14-5.22-22.14-.31-.66-.6-1.32-.87-2-.13-.34-.4-.78.06-1.02.43-.22.7.19.9.51.78,1.27,1.5,2.58,2.1,3.95,2.29,5.19,3.89,10.58,4.24,16.25.22,3.57.46,7.15.16,10.76-.25,3-.48,6.02-.6,9.03-.02.59.16,1.13.3,1.68.29,1.08.06,1.47-1.02,1.75q-1.76.48-2.02,2.29c-.05.38-.13.75-.23,1.12-.21.79-.74,1.12-1.54,1.03-.34-.04-.69-.1-1.01-.22-.86-.31-1.4-.13-1.8.79-.54,1.28-1.18,1.46-2.35.71-.89-.58-1.56-.64-2.27.23-.61.74-1.38.79-2.14.21-.77-.58-1.5-.54-2.34-.11-1.83.93-2.29.73-2.75-1.32-.29-1.29-1.04-2.18-1.94-3.03-.51-.49-.81-.42-1.08.24-.62,1.52-1.27,3.03-1.89,4.56-1.33,3.27-3.34,6.2-4.64,9.48-2.06,5.21-2.11,10.43-.27,15.7.64,1.91,1.84,3.5,2.99,5.12,1.81,2.55,4.15,4.57,6.56,6.52.81.66,1.72,1.13,2.67,1.54.38.16.89.34.71.87-.17.49-.66.28-.99.17-.59-.21-1.04,0-1.44.4-3.8,3.57-6.08,7.98-7.19,13.03.44-1.14.97-2.23,1.57-3.29.62-1.1,1.3-2.16,2.17-3.08.13-.14.23-.3.37-.43.29-.27.65-.53,1.01-.24.43.33.1.7-.13.99-1.01,1.21-1.78,2.58-2.54,3.95-.58,1.04-.97,2.16-1.27,3.31-.1.38-.3.89.31,1.04.47.11.82-.17.96-.62.58-1.79,1.79-3.18,2.92-4.63.4-.51.85-.99,1.4-1.35.29-.19.64-.4.94-.11.32.32.03.64-.16.91-.7.96-1.54,1.8-2.22,2.78-.58.85-1.22,1.67-1.51,2.69-.17.59,0,.81.62.59,1.24-.43,2.31-1.18,3.46-1.79,2.43-1.3,4.71-2.85,6.97-4.41,1.9-1.55,3.97-2.87,5.63-4.7.22-.25.67-.46.56-.8-.13-.43-.65-.32-1-.36-1.98-.22-3.94-.56-5.85-1.12-.52-.15-1.37-.27-1.2-.95.18-.76,1.01-.48,1.58-.35,3.97.89,7.99,1.23,12.04,1.5,5.92.39,11.75-.13,17.59-.87,1.45-.18,2.91-.18,4.36-.38-1.79.21-3.59.29-5.39.22-.4-.01-1,.03-1.03-.49-.04-.64.6-.56,1.03-.6,5.28-.55,10.53-.23,15.77.54,5.3.79,10.51,2.02,15.76,3.09,6.87,1.39,13.76,2.65,20.8,2.31,6.34-.31,12.54-1.24,18.32-4.13,3.06-1.53,5.36-3.9,7.62-6.35.7-.76,1.35-1.56,1.98-2.37,4.47-5.91,7.96-12.33,10.08-19.46.94-3.18,1.21-6.46,1.34-9.75.05-1.43-.03-1.49-1.4-1.71-1.63-.26-3.22-.66-4.82-1.04-3.22-.77-6.07-2.31-8.73-4.21-2.02-1.45-1.94-2.72.22-4.01,1.57-.94,3.18-1.83,4.9-2.5,2.21-.87,4.4-1.79,6.61-2.63,1.36-.52,1.44-.61,1.15-2.01-1.01-4.87-2.16-9.71-3.28-14.56-.75-3.24-1.63-6.46-2.39-9.7-.25-1.09-.77-1.59-1.89-1.77-4.41-.69-8.69-1.8-12.64-3.96-1.02-.56-1.96-1.2-2.75-2.05-.82-.89-.85-1.82-.11-2.79.42-.56.97-.97,1.56-1.33,3.16-1.98,6.7-2.97,10.26-3.9,2.19-.57,1.97-.42,1.6-2.5-2.03-11.18-4.32-22.32-5.84-33.59-.62-4.58-.93-9.2-1.5-13.8-.94-7.67-1.66-15.37-3.16-22.95-.51-2.6-1.42-5.08-2.26-7.58-.95-2.71-2.2-5.27-3.64-7.76-.42-.73-.95-.96-1.8-.79-1.19.23-2.41.38-3.63.39-.4-.09-.76-.21-.63-.74.27-.38.68-.46,1.1-.53,6.84-1.12,13.53-2.86,20.2-4.7,5.7-1.65,11.33-3.47,16.7-6.02,1.1-.53,2.23-1,3.33-1.54,1.55-.76,3.13-1.45,4.05-3.05.09-.16.28-.26.46-.32.26-.03.51.09.42.34-.25.71.32.85.69,1.15Z"/>
  <path class="cls-12" d="M27.24,38.33c-.11.4.14,1.02-.46,1.12-.46.08-.68-.36-.73-.81.28-.48-.05-.89-.19-1.3-2.01-5.74-3.12-11.68-3.48-17.73-.19-3.19-.36-6.42.2-9.61.16-.93-.41-1.24-1.05-1.52-2.1-.92-4.17-1.92-6.28-2.81C11.2,3.97,7.1,2.51,2.85,1.48c-.37-.09-.73-.23-1.22-.14-.08.62.26,1.14.5,1.67,4.39,9.67,9.88,18.64,16.73,26.77,1.85,2.19,3.61,4.46,5.58,6.54.43.45.98.89.91,1.64-.26,0-.54-.03-.7.26-3.97-4.35-7.71-8.88-11.22-13.62-2.43-3.27-4.66-6.65-6.67-10.17C4.35,10.22,1.95,6,.28,1.42.13.99-.19.43.15.17.46-.07,1.11-.02,1.55.1c2.7.73,5.43,1.42,8.08,2.32,4.41,1.5,8.64,3.44,12.83,5.46,21.19,10.21,38.82,24.91,54.02,42.7.56.65.84,1.83,1.64,1.9.7.06,1.45-.76,2.21-1.1,6.47-2.85,13.2-4.8,20.2-5.81,5.95-.86,11.93-1.41,17.95-1.16,10.06.43,19.92,1.93,29.34,5.69,1.99.8,3.95,1.67,5.69,2.93.61.44.96.44,1.54-.02,6.94-5.46,14.54-9.86,22.44-13.76,10.23-5.06,20.77-9.31,31.97-11.72,5.35-1.15,10.73-2.19,16.19-2.72,3.08-.3,6.16-.71,9.26-.66,1.09-.23,2.21.07,3.31-.17,1.27-.02,2.54-.04,3.81-.06,2.47-.12,4.93-.18,7.4.03.18,1.25-.89,1.83-1.48,2.64-2.69,3.75-5.82,7.11-9.22,10.23-.39.16-.64.48-.94.75-.22.2-.45.41-.76.13-.01-.67.53-1,.92-1.38,3.08-2.98,5.99-6.12,8.6-9.53.39-.51.81-1.01,1.15-1.59-.33-.4-.74-.25-1.09-.26-4.24-.14-8.49.06-12.72.26-3.39.17-6.78.49-10.15.89-.76.09-1.05.45-1.05,1.2,0,5.02-1.66,9.63-3.67,14.1-2.13,4.74-4.59,9.32-7.47,13.88,7.61-4.13,14.78-8.61,21.21-14.21.84-.73,1.66-1.47,2.48-2.22.46-.42.9-.97,1.64-.93.28.41-.12.66-.23.98-.72,1.08-1.82,1.82-2.78,2.62-3.68,3.1-7.49,6.06-11.59,8.62-3.43,2.14-6.83,4.32-10.45,6.12-.15.08-.28.07-.42.08-1.33.23-.98-.7-.98-1.4-.09-.29.04-.53.19-.75,1.53-2.29,2.73-4.78,4.09-7.16,1.53-2.67,2.69-5.49,3.88-8.29,1.47-3.46,2.47-7.07,2.76-10.85.09-1.2-.12-1.45-1.35-1.23-6.63,1.15-13.25,2.4-19.68,4.46-13.71,4.39-26.54,10.62-38.62,18.43-2.38,1.54-4.59,3.31-6.86,5-.31.23-.6.49-.95.65-.56.25-1.05.18-1-.55.04-.73-.4-1.02-.9-1.32-1.69-.99-3.47-1.78-5.3-2.47-6.12-2.31-12.42-3.8-18.91-4.59-4.25-.51-8.53-.96-12.79-.85-11.15.29-22.08,1.92-32.49,6.2-1.81.74-3.53,1.66-5.25,2.57-.3.16-.59.37-.93.43-.27.05-.55.05-.69-.25-.11-.24.03-.44.17-.63.26-.35.88-.48.8-1.04-.08-.55-.54-.9-.88-1.32-4.15-5.07-8.69-9.78-13.42-14.3-9.19-8.78-19.24-16.44-30.2-22.9-2.31-1.36-4.66-2.63-7.01-3.91-.86-.47-1.11-.34-1.34.63-.05.22-.09.45-.1.68-.29,7.81.45,15.51,2.75,23.01.27.88.52,1.76.85,2.62.14.35.28.73.02,1.1Z"/>
  <path class="cls-5" d="M249.43,23.96c-2.46-.01-4.93-.02-7.4-.03,2.38-.29,4.77-.16,7.16-.17.08,0,.16.13.23.2Z"/>
  <path class="cls-12" d="M237.07,37.73c.73.02.9-.97,1.65-.9-.63.76-1.34,1.45-2.1,2.08.07-.32.15-.63.22-.95-.05-.2.02-.28.23-.23Z"/>
  <path class="cls-5" d="M238.22,23.98c-1.08.41-2.2.15-3.31.17,1.09-.28,2.2-.19,3.31-.17Z"/>
  <path class="cls-10" d="M27.24,38.33c-.56-1.85-1.13-3.7-1.68-5.55-.84-2.83-1.35-5.74-1.77-8.64-.53-3.68-.55-7.4-.43-11.11.03-.82-.07-1.61.11-2.47.25-1.2.64-1.1,1.5-.65,9.06,4.76,17.64,10.28,25.65,16.66,9.25,7.36,17.69,15.55,25.29,24.61.05.06.1.12.15.18q1.22,1.48-.2,2.65c-.1.09-.16.23-.23.35.42.33.69.02.97-.14,7.31-4.16,15.26-6.4,23.48-7.76,4.34-.72,8.73-1.2,13.12-1.26,12.15-.17,24.02,1.4,35.35,6.07,1.49.61,2.92,1.35,4.26,2.23.36.24,1.01.45.31,1.05-.15.13-.13.35.04.5.18.15.36.09.52-.02.31-.22.62-.45.92-.69,15.49-11.8,32.74-20.03,51.47-25.19,4.68-1.29,9.49-2.02,14.26-2.88.95-.17,1.35.05,1.3,1.15-.21,4.11-1.38,7.97-2.91,11.74-.88,2.17-1.72,4.4-2.88,6.42-1.79,3.13-3.22,6.47-5.43,9.35-1.08,1.84-2.87,2.71-4.69,3.62-6.18,3.11-12.67,5.4-19.29,7.35-.18.05-.38.04-.57.06-4.24,1.11-8.56,1.45-12.92,1.24-2.17-.1-4.34-.25-6.52-.21-1.66.03-1.74.16-1.64,1.78.05.75.53,1.59-.28,2.25-.08.59.42.36.67.47.26.11.42.31.54.56,1.1,2.36,2.85,4.22,4.72,5.97.8.75,1.77,1.18,2.84,1.38.37.07.77,0,1.07.32,1.84,4.53,2.79,9.27,3.47,14.09,1.47,10.48,2.37,21.04,3.72,31.53,1.11,8.64,2.83,17.19,4.44,25.75.5,2.66.94,5.34,1.51,7.99.19.89-.13,1.07-.89,1.25-3.61.85-7.19,1.81-10.47,3.61-.6.33-1.2.69-1.75,1.09-1.58,1.15-1.63,2.44-.09,3.62,2.81,2.15,6.05,3.4,9.43,4.29,1.95.51,3.96.84,5.95,1.21.74.14,1.13.39,1.35,1.23,2.2,8.51,4.1,17.08,6.04,25.65.19.82-.06,1.11-.8,1.4-3.92,1.51-7.89,2.89-11.57,4.98-2.86,1.62-2.86,2.52-.16,4.4,4,2.79,8.55,4.01,13.26,4.73,1.04.16,1.17.55,1.17,1.46.05,8.25-2.68,15.67-6.72,22.69-1.43,2.48-2.91,4.94-4.79,7.12-2.43,2.1-5.46,2.85-8.41,3.77-3.43,1.07-7,1.24-10.55,1.37-2.79.1-5.59,0-8.38.03-6.44.08-12.72-.9-18.9-2.66-6.92-1.97-13.68-4.43-20.45-6.87-5.27-1.9-10.6-3.54-16.23-3.97-4.9-.37-9.61.45-14.12,2.37-3.03,1.29-6.04,2.65-9.24,3.42-5.82,1.41-11.46,1-16.8-1.92-1.63-.89-3.1-1.96-4.11-3.57-1.67-4.27-1.84-8.64-.76-13.05.64-2.65,1.8-5.12,3.13-7.49,1.81-3.21,3.19-6.6,4.56-10.01.28-.69.45-.81,1.03-.21,1.19,1.25,2.4,2.42,2.54,4.31.07.96.69,1.21,1.55.71.26-.15.57-.24.81-.43.83-.64,1.59-.58,2.34.13.81.77,1.51.56,2.05-.31.58-.94,1.23-.97,2.01-.28.2.17.45.29.68.42.81.49,1.31.3,1.65-.62.55-1.5.59-1.48,2.12-1.1.33.08.67.15,1.01.23.71.17,1.1-.13,1.21-.83.13-.79.32-1.58.37-2.38.05-.76.36-1.11,1.12-1.07.11,0,.22-.05.33-.07,1.78-.34,1.77-.33,1.21-2.1-.35-1.09-.05-2.21.05-3.3.58-6.41.86-12.83.13-19.25-.75-6.67-2.93-12.86-6.21-18.69-.07-.13-.18-.25-.29-.35-.04-.04-.14-.03-.26-.05-.25.46.13.77.29,1.11,2.48,5.23,4.6,10.59,5.44,16.36.77,5.29.76,10.6.44,15.92-.14,2.33-.36,4.65-.53,6.98-.03.34-.12.76.03,1.02.85,1.47-.11,1.64-1.18,1.67-1,.03-1.28.6-1.36,1.46-.08.91.07,2.1-.55,2.61-.6.49-1.65-.19-2.48-.43-.88-.25-1.05.28-1.27.89-.55,1.47-.62,1.56-1.91.63-1.07-.77-1.75-.57-2.44.42-.31.45-.67,1.04-1.34.37-.99-.99-1.98-.79-3.07-.11-1.13.71-1.22.65-1.41-.71-.14-1.01-.64-1.73-1.32-2.46-6.52-7.02-11.43-14.94-13.06-24.54-2.26-13.28.4-25.54,7.98-36.69,1.26-1.86,1.3-1.83,2.98-.39,3.16,2.72,6.39,5.36,9.83,7.73.22.15.43.33.66.45.24.13.53.52.77.15.22-.34-.23-.5-.45-.67-3.51-2.66-7-5.34-10.27-8.28-4.89-4.38-9.19-9.31-13.04-14.62-.21-.29-.68-.6-.15-1.05,2.09-1.76,2.57-4.27,3.02-6.75.77-4.19.39-8.32-1-12.32-.65-1.87-1.49-3.71-3.35-4.78-.36-.21-.33-.45-.19-.77,2.38-5.42,2.2-11.28,2.84-17,.52-4.68,1.27-9.32,2.62-13.84,1.89-6.36,5.19-11.88,9.97-16.51.31-.29.78-.5.81-1.32-1.1.67-1.9,1.44-2.69,2.21-.79.77-1.51,1.63-2.25,2.44-.98.48-1.97.12-2.9-.08-4.52-.99-8.94-2.28-12.93-4.73-5.34-3.44-10.15-7.55-14.85-11.79-.68-.61-1.36-1.23-2.01-1.87-1.97-1.92-4.24-3.61-5.11-6.41Z"/>
  <path class="cls-10" d="M216.46,175.97c-2.61-6.44-5.21-12.89-7.85-19.32-.34-.83-.22-1.15.63-1.47,6.78-2.6,13.56-5.16,20.44-7.48,1.76-.59,1.78-.66.71-2.24-10.13-14.8-20.26-29.6-30.42-44.38-.6-.88-.64-1.27.32-1.92,24.3-16.29,49.02-31.92,74.57-46.2,2.34-1.31,2.36-1.26,3.57,1.07,7.3,14.04,14.56,28.1,20.75,42.67,1.06,2.5,2.12,4.99,2.92,7.59.05.54-.38.61-.74.68-.37.08-.75.14-1.14.14-4.09.01-8.18-.06-12.26.22-3.54.25-7.09.45-10.63.75-7.01.6-13.99,1.43-20.95,2.45-9.54,1.4-19.04,2.96-28.4,5.34-.85.22-1.7.46-2.53.75-1.19.42-1.29.58-.78,1.74,1.48,3.4,2.89,6.83,4.3,10.26,3.33,8.06,6.65,16.12,9.97,24.18.68,1.64.55,1.87-1.16,2.28-5.96,1.41-12,2.38-18.1,2.98-1.6.16-3.19.33-4.79.49-1.1.11-1.23.29-.91,1.41,1.16,4.04,2.37,8.07,3.54,12.11.18.62.39,1.24.35,1.91,0,.32-.01.65-.09.96-.24.76-.31,1.56-.55,2.32-.11.35-.14.88-.77.68Z"/>
  <path class="cls-2" d="M217.59,172.11c-.33-2.43-1.26-4.7-1.89-7.05-.7-2.61-1.5-5.2-2.29-7.78-.17-.57-.14-.83.52-.89,1.74-.18,3.46-.45,5.2-.62,5.34-.5,10.64-1.19,15.87-2.41,1.07-.25,2.15-.5,3.23-.69.8-.14.97-.39.62-1.2-1.63-3.82-3.18-7.68-4.77-11.52-3.34-8.07-6.68-16.14-10.06-24.19-.32-.77-.11-.97.58-1.2,4.49-1.49,9.13-2.37,13.74-3.34,4.76-1.01,9.56-1.73,14.37-2.47,4.09-.63,8.2-1.11,12.3-1.67,4.63-.63,9.29-1.04,13.95-1.39,3.64-.27,7.29-.47,10.94-.72,3.67-.25,7.33-.07,11-.17.46-.01.94.04,1.18-.49.45.76-.29.72-.62.85-8.15,3.06-16.31,6.11-24.59,8.82-11.72,3.84-23.49,7.54-35.37,10.87-1.66.46-1.68.51-1.17,2.12,2.78,8.85,5.54,17.71,8.36,26.55.32,1,.08,1.27-.83,1.58-6.69,2.27-13.35,4.62-20.04,6.9-.96.33-1.25.74-.94,1.76.71,2.3,1.3,4.63,1.94,6.95.25,1.06.06,2.12-.03,3.17-.03.34-.19.69-.57.79-.43.11-.61-.25-.78-.54-.6-1.01-1.23-2.02-1.71-3.31-.07,1.24-.12,2.32-.32,3.37-.06.34-.11.72-.48.85-.47.17-.68-.23-.92-.51-.52-.61-.94-1.3-1.45-2.04-.18.91-.23,1.79-.47,2.62-.23.82-.73,1-1.34.43-1.14-1.06-2.36-2.05-3.18-3.41Z"/>
  <path class="cls-2" d="M60.26,239.8c2.15,2.12,4.58,3.81,7.47,4.74,5.57,1.79,11.06,1.46,16.55-.54,3.47-1.26,6.75-3.04,10.36-3.94,3.54-.88,7.1-1.1,10.75-.79,6.98.61,13.39,3.14,19.87,5.46,7.5,2.68,15.01,5.32,22.84,6.9,3.09.62,6.24.95,9.4,1,3.83.06,7.65.09,11.48,0,5.96-.15,11.72-1.26,17.06-4.09.47-.25.94-.49,1.41-.73-4.51,6.65-10.81,10.46-18.66,11.98-8.26,1.59-16.49,1.44-24.72-.13-6.6-1.26-13.17-2.67-19.78-3.88-5.93-1.09-11.91-1.42-17.92-.81-.1,0-.19.07-.28.32h6.74c0,.1.01.21.02.31-3.16.39-6.32.85-9.48,1.16-4.57.45-9.15.56-13.75.28-3.89-.24-7.77-.59-11.56-1.55-.19-.05-.37-.09-.56-.11-.22-.02-.5-.09-.56.21-.06.29.22.39.43.44,1.45.34,2.89.7,4.36.98,1.3.24,2.62.37,4.14.58-2.07,2.64-4.66,4.43-7.23,6.26-.35-.33-.26-.77-.31-1.18-.18-1.65-.63-3.23-1.4-4.7-.97-1.86-2.49-3.05-4.58-3.49-.51-.11-1.08-.04-1.51-.46.6-1.24,1.67-.2,2.47-.41.02-.34-.19-.39-.35-.46-5.79-2.81-9.72-7.43-12.62-13.04-.05-.1-.04-.22-.06-.33Z"/>
  <path class="cls-4" d="M217.59,172.11c1.24.83,2.1,2.06,3.19,3.05.21.2.38.59.71.48.36-.12.36-.54.41-.87.16-.92.2-1.86.57-2.88.7.96,1.32,1.81,1.94,2.67.11.16.21.38.42.34.27-.05.26-.32.3-.55.2-1.3.14-2.64.52-4.12.7,1.29,1.3,2.42,1.93,3.54.15.27.19.79.63.66.33-.1.32-.56.35-.91.08-.95.18-1.89.27-2.84,1.34,4.61,2.66,9.21,4.02,13.81.17.56-.19.67-.53.82-5.1,2.24-10.21,4.48-15.32,6.72-.73.32-1.47.65-2.21.96-1.31.56-1.42.75-.87,2.05,1.62,3.83,3.26,7.66,4.91,11.48.65,1.52.67,1.5-.84,2.02-5.73,1.98-11.47,3.96-17.19,5.98-.92.33-1.19.16-1.18-.83,0-1.22-.03-2.46-.28-3.64-.19-.9.14-1.21.84-1.56,3.14-1.57,6.25-3.23,9.4-4.77,1.01-.49,1.1-.96.61-1.93-2.24-4.48-4.39-8.99-6.6-13.49-.3-.61-.39-.98.37-1.33,3.09-1.41,6.16-2.88,9.23-4.33,1.82-.18,3.62-.45,5.45-.56.83-.05,1.06-.38.86-1.16-.51-1.96-1.09-3.89-1.62-5.84-.19-.7-.4-1.39-.35-2.12.02-.29.04-.57.06-.85Z"/>
  <path class="cls-5" d="M25.36,37.96c-2.65-3.14-5.33-6.26-7.93-9.44-3.48-4.25-6.63-8.74-9.39-13.5C5.76,11.09,3.57,7.1,1.76,2.93c-.27-.62-.47-1.28-.75-2.04,1.83.08,3.42.7,5.03,1.15,4.79,1.33,9.34,3.3,13.84,5.4.31.14.62.3.94.43,2.16.83,1.95.81,1.86,3.13-.13,3.2-.2,6.41.1,9.62.26,2.73.56,5.44,1.09,8.13.61,3.1,1.43,6.16,2.49,9.14.11.31.51.8-.3.77-.15-.31-.38-.54-.69-.69Z"/>
  <path class="cls-10" d="M70.83,254.04c3.18.04,5.41,1.54,6.66,4.43.74,1.71,1.27,3.49,1.13,5.4-3.24,2.38-6.69,4.42-10.31,6.16-.32.15-.74.48-1.05.2-.31-.28-.04-.72.06-1.08.46-1.68,1.62-2.92,2.64-4.25.5-.65,1.05-1.27,1.63-1.96-.67-.29-.91.16-1.17.42-1.65,1.7-3.27,3.44-3.96,5.8-.23.79-.93.76-1.5.67-.72-.12-.49-.74-.38-1.21.64-2.65,1.99-4.94,3.57-7.12.25-.35.7-.6.54-1.21-2.49,2.08-3.84,4.91-4.98,8.01-.82-3.05,3.22-11,7.12-14.25Z"/>
  <path class="cls-10" d="M165.45,267.63c-3.06,2.46-6.1,4.98-9.77,6.52-.52.22-1.21.79-1.64.36-.45-.47.13-1.14.4-1.67.95-1.92,2.09-3.73,3.35-5.46.23-.31.63-.58.53-1.07-.36-.19-.49.11-.65.29-1.86,2.2-3.45,4.56-4.54,7.25-.29.71-1.35,1.25-2.05,1.04-.59-.17-.33-.62-.28-.94.45-2.46,1.31-4.78,2.56-6.94.31-.53.62-1.06.89-1.6.15-.31.64-.68.19-.98-.45-.29-.62.28-.81.57-1.49,2.33-2.75,4.77-3.32,7.5-.19.91-.71,1.15-1.47,1.27-.53.09-.69-.12-.63-.62.52-3.99,1.68-7.75,3.85-11.16.27-.43.61-.38.99-.32,1.82.2,3.65-.05,5.47.19.3.04.62,0,.9.11,2.39.96,4.37,2.45,5.92,4.5.27.35.37.75.12,1.17Z"/>
  <path class="cls-7" d="M57.78,120.87c.04,2.91-.38,5.57-1.42,8.12-.31.76-.75,1.41-1.33,1.98-.37.36-.63.51-.95-.05-2.05-3.5-4.17-6.95-4.71-11.1-.28-2.11.28-4.01,1.19-5.85.78-1.57,1.63-3.12,2.36-4.72.36-.79.74-.62,1.18-.2,1.22,1.16,1.96,2.63,2.5,4.2.85,2.52,1.24,5.12,1.18,7.61Z"/>
  <path class="cls-9" d="M189.76,173.39c-4.96-.78-9.81-1.95-14.1-4.71-2.28-1.46-2.26-2.1.02-3.51,3.53-2.18,7.49-3.16,11.46-4.12.52-.13.71.1.82.63.77,3.69,1.57,7.37,2.4,11.05.14.62-.04.77-.59.65Z"/>
  <path class="cls-9" d="M198.93,214.86q.03,1.07-1.35.85c-4.49-.71-8.8-1.9-12.59-4.55-2.08-1.46-2.1-1.75.09-3.01,3.7-2.12,7.73-3.46,11.66-5.04.52-.21.73-.1.84.48.7,3.64,1.1,7.32,1.35,11.27Z"/>
  <path class="cls-2" d="M165.45,267.63c-.27-1.53-1.51-2.3-2.52-3.24-2.27-2.1-5-2.7-8-2.54-.62.03-1.29.19-1.89-.19,3.36-.04,6.72.14,10.07-.22,3.2-.34,6.35-.87,9.44-1.75.25-.07.49-.21.88-.06-2.38,2.98-4.88,5.78-7.97,7.99Z"/>
  <path class="cls-2" d="M164.52,71.04c.36-.91-.02-1.8-.12-2.67-.17-1.39.01-1.65,1.45-1.71,3.25-.13,6.47.26,9.71.25,3.17,0,6.29-.38,9.4-.89.3-.05.61-.03.91-.04-4.28,1.41-8.66,2.45-13.05,3.42-2.76.61-5.54,1.1-8.31,1.64Z"/>
  <path class="cls-2" d="M174.36,79.76c-1.79.09-3.22-.62-4.49-1.85-1.93-1.87-3.68-3.85-4.67-6.39,1.4-.18,2.8-.32,4.19-.56.53-.09.77.06,1.01.46,1.58,2.66,3.01,5.39,3.96,8.34Z"/>
  <path class="cls-2" d="M49.21,58.41c1.86.77,3.69,1.61,5.58,2.29,3.32,1.2,6.68,2.27,10.24,2.52-.4.56-.8,1.11-1.2,1.67-1.07,1.5-1.07,1.49-2.8.67-4.19-1.97-8.13-4.36-11.82-7.15Z"/>
  <path class="cls-6" d="M217.53,172.97c1,2.82,1.64,5.74,2.48,8.61.14.47-.07.75-.54.8-1.92.17-3.84.33-5.76.48-.2.02-.37-.04-.5-.2,1.3-.62,2.59-1.28,3.92-1.84.87-.37,1.01-.87.63-1.69-.48-1.03-.87-2.1-1.3-3.15.64-.43.53-1.13.67-1.75.1-.42.27-.83.4-1.25Z"/>
  <path class="cls-5" d="M237.07,37.73c-.08.08-.15.15-.23.23-2.93,2.31-5.59,4.92-8.59,7.15-3,2.23-6.12,4.27-9.28,6.26-2.55,1.6-5.15,3.12-8.1,4.49.98-1.66,1.88-3.12,2.72-4.62,3.56-6.32,6.96-12.71,8.44-19.92.29-1.39.45-2.79.33-4.2-.09-1,.44-1.27,1.26-1.33,2.88-.21,5.75-.53,8.63-.73,4.87-.34,9.75-.45,14.63-.41.44,0,1.06-.24,1.27.18.19.38-.32.79-.58,1.14-2.72,3.59-5.66,6.98-8.93,10.09-.55.52-1.04,1.11-1.56,1.67Z"/>
  <path class="cls-1" d="M148.28,99.25c-.05,3.05-1.1,6.34-4.41,8.1-8.12,4.32-16.28-.77-17.01-8.69-.48-5.28,1.6-8.92,5.84-10.71,7.26-3.07,15.96,2.92,15.57,11.3Z"/>
  <path class="cls-1" d="M78.62,96.39c-.09,2.9-.42,5.71-2.57,7.98-3.57,3.79-9.83,3.09-12.45-1.43-2.41-4.16-1.56-10.79,1.86-14.2,2.12-2.11,4.73-2.76,7.6-2.26,2.51.44,3.73,2.38,4.63,4.52.72,1.71.95,3.53.92,5.39Z"/>
  <path class="cls-2" d="M90.22,158.89c3.73,1.05,7.55,1.21,11.32,1.16,3.05-.04,6.1-.03,9.15-.19,1.14-.06,2.27-.18,3.42-.2.61,0,.93.14.52.77-2.49,3.83-5.72,6.82-9.94,8.65-1.26.54-2.5.21-3.66-.3-4.67-2.08-8.14-5.51-10.81-9.88Z"/>
  <path class="cls-2" d="M156.23,202.31c.98-2.03,2.29-3.86,3.47-5.77,1.69-2.73,3.26-5.52,4.78-8.34,1.54-2.86,3.03-5.74,4.54-8.61.18-.34.33-.77.76-.77.49,0,.65.48.83.85.75,1.57.95,3.28,1.25,4.96.34,1.93.18,3.88.25,5.82.05,1.49-.57,2.63-1.53,3.69-2.2,2.42-4.96,4.02-7.8,5.53-1.54.82-2.96,1.9-4.74,2.22.46-1.31,1.58-2.12,2.46-3.09,3.01-3.29,8.31-12.02,9.41-15.57-3.16,6.48-6.91,13.01-12.4,18.38-.34.33-.58.96-1.27.7Z"/>
  <path class="cls-3" d="M156.23,202.31c2.69-2.3,4.99-4.95,6.94-7.89,2.52-3.79,4.89-7.66,6.65-11.88.08-.2.23-.37.37-.58.41.25.26.54.18.81-.4,1.32-.98,2.57-1.6,3.79-2.87,5.61-6.25,10.85-10.73,15.33-3.85,3.45-7.85,6.71-12.31,9.35-1.22.72-2.39,1.56-3.69,2.09-3.08,1.25-5.84,2.9-8.09,5.41-1,1.11-1.52.99-2.15-.31-.54-1.13-1.08-1.37-2.21-.71-1.3.76-1.36.66-2.05-.69-.05-.1-.11-.2-.16-.3-.75-1.46-.76-1.51-2.33-1.02-.97.3-1.58.19-1.7-.93-.13-1.18-.62-1.77-1.92-1.37-.9.28-1.28-.18-1.22-1.08.02-.27-.04-.54,0-.8.17-.99-.23-1.33-1.23-1.38-1.48-.07-1.69-.38-.84-1.51,1.55-2.06,1.45-4.43,1.57-6.77.58-11.19,4.09-21.39,10.39-30.65,3.2-4.7,7.24-8.57,11.79-11.95.17-.13.33-.33.7-.19,0,.52-.49.7-.79.95-4.65,3.86-8.89,8.09-12.1,13.25-4.86,7.79-8.1,16.17-8.86,25.4-.1,1.14-.29,2.28-.34,3.42-.11,2.47.1,5.01-2.1,7.28,2.55-.29,2.87.99,2.66,2.71-.07.57.27.55.72.5,1.74-.21,1.76-.2,2.21,1.52.16.63.25,1.01,1.11.75,1.95-.6,2.02-.56,2.89,1.33.42.92.81,1.13,1.75.64,1.74-.91,1.46-1.02,2.45.73.65,1.16.77,1.25,1.65.23,1.98-2.29,4.54-3.58,7.21-4.88,5.59-2.73,10.65-6.3,15.19-10.58Z"/>
  <path class="cls-13" d="M139.2,126.4c-.01-7.27,5.83-13.1,13.12-13.11,7.29,0,13.23,5.82,13.27,13.02.04,7.21-5.95,13.19-13.27,13.13-7.67-.05-13.4-6.2-13.12-13.04Z"/>
  <path class="cls-11" d="M103.81,126.42c-1.27,0-2.38-.51-3.47-1.07-1.97-1.01-3.94-2.02-5.89-3.07-.64-.34-1.19-.35-1.83-.03-1.85.91-3.73,1.75-5.65,2.5-1.65.64-3.05.42-4.33-.76-.53-.49-1.11-.94-1.63-1.44-.23-.21-.65-.47-.31-.84.35-.39.6.04.84.24.74.61,1.45,1.24,2.2,1.83.71.57,1.49.63,2.37.36,2.13-.66,4.12-1.61,6.1-2.6.94-.47,1.74-.49,2.68.04,1.96,1.1,4,2.07,5.98,3.14,1.89,1.02,3.74,1.21,5.62,0,.93-.6,1.91-1.12,2.86-1.68.24-.14.52-.27.71,0,.15.21,0,.41-.18.59-.92.96-4.87,2.77-6.07,2.78Z"/>
  <path class="cls-8" d="M94.34,110.1c.84,0,1.68-.04,2.52.01.72.05.87.46.39.98-.86.95-1.94,1.61-3.14,2.03-.67.24-3.14-1.48-3.24-2.21-.09-.61.39-.81.85-.84.87-.05,1.75-.02,2.63-.02v.03Z"/>
  <path class="cls-14" d="M133.94,98.15c-2.33.01-3.63-1.34-3.63-3.75,0-2.51,1.91-4.49,4.36-4.53,2.02-.03,3.64,1.64,3.65,3.75,0,2.75-1.7,4.51-4.38,4.53Z"/>
  <path class="cls-14" d="M75.74,93.07c.08,1.1-.47,1.92-1.2,2.62-1.28,1.23-2.95.98-3.9-.52-.87-1.38-.68-3.69.41-4.95,1.36-1.57,3.41-1.27,4.26.62.32.71.38,1.47.42,2.24Z"/>
  <path class="cls-7" d="M152.21,138.6c-6.62,0-12.49-5.35-12.27-12.65.2-6.52,5.83-11.91,12.59-11.81,6.94.1,12.3,5.59,12.21,12.51-.08,6.68-5.7,12.04-12.53,11.96Z"/>
</svg>